<?xml version="1.0" encoding="UTF-8" standalone="no"?>
<svg
   xmlns:dc="http://purl.org/dc/elements/1.1/"
   xmlns:cc="http://creativecommons.org/ns#"
   xmlns:rdf="http://www.w3.org/1999/02/22-rdf-syntax-ns#"
   xmlns:svg="http://www.w3.org/2000/svg"
   xmlns="http://www.w3.org/2000/svg"
   xmlns:sodipodi="http://sodipodi.sourceforge.net/DTD/sodipodi-0.dtd"
   xmlns:inkscape="http://www.inkscape.org/namespaces/inkscape"
   sodipodi:docname="Signature.svg"
   inkscape:version="1.0 (4035a4fb49, 2020-05-01)"
   id="svg8"
   version="1.1"
   viewBox="0 0 240.00005 160.00658"
   height="604.74927"
   width="907.08685">
  <defs
     id="defs2">
    <inkscape:path-effect
       lpeversion="1"
       is_visible="true"
       id="path-effect873"
       effect="spiro" />
    <inkscape:path-effect
       lpeversion="1"
       is_visible="true"
       id="path-effect869"
       effect="spiro" />
    <inkscape:path-effect
       lpeversion="1"
       is_visible="true"
       id="path-effect865"
       effect="spiro" />
  </defs>
  <sodipodi:namedview
     fit-margin-bottom="0"
     fit-margin-right="0"
     fit-margin-left="0"
     fit-margin-top="0"
     units="px"
     inkscape:window-maximized="1"
     inkscape:window-y="-11"
     inkscape:window-x="-11"
     inkscape:window-height="1046"
     inkscape:window-width="1920"
     showgrid="false"
     inkscape:document-rotation="0"
     inkscape:current-layer="layer1"
     inkscape:document-units="mm"
     inkscape:cy="370.48895"
     inkscape:cx="792.59472"
     inkscape:zoom="0.66625561"
     inkscape:pageshadow="2"
     inkscape:pageopacity="0.0"
     borderopacity="1.0"
     bordercolor="#666666"
     pagecolor="#ffffff"
     id="base" />
  <metadata
     id="metadata5">
    <rdf:RDF>
      <cc:Work
         rdf:about="">
        <dc:format>image/svg+xml</dc:format>
        <dc:type
           rdf:resource="http://purl.org/dc/dcmitype/StillImage" />
        <dc:title></dc:title>
      </cc:Work>
    </rdf:RDF>
  </metadata>
  <g
     transform="translate(19.930971,-63.337839)"
     id="layer1"
     inkscape:groupmode="layer"
     inkscape:label="Layer 1">
    <g
       transform="matrix(0.99794404,0,0,0.97779437,-51.516575,-7.5676675)"
       style="stroke:#f4f4ed;stroke-width:5;stroke-miterlimit:4;stroke-dasharray:none;stroke-opacity:1"
       inkscape:export-ydpi="307.20001"
       inkscape:export-xdpi="307.20001"
       id="g881">
      <path
         style="fill:none;stroke:#f4f4ed;stroke-width:5;stroke-linecap:butt;stroke-linejoin:miter;stroke-miterlimit:4;stroke-dasharray:none;stroke-opacity:1"
         d="m 56.391021,169.9673 c 9.499841,-7.19401 18.178243,-15.47187 25.812789,-24.62143 4.159478,-4.98489 8.010067,-10.22694 12.310716,-15.09056 2.855001,-3.22873 5.902424,-6.28387 8.736634,-9.53087 5.58105,-6.3939 10.34222,-13.56758 13.50208,-21.444477 2.18241,-5.440321 3.5834,-11.160486 5.55968,-16.679032 0.37648,-1.051267 0.77735,-2.110281 0.88094,-3.222111 0.0518,-0.555915 0.0273,-1.122128 -0.11108,-1.663017 -0.13843,-0.540889 -0.39367,-1.056229 -0.76986,-1.46879 -0.52687,-0.577811 -1.26818,-0.929482 -2.03261,-1.094139 -0.76442,-0.164657 -1.55585,-0.154431 -2.33571,-0.09722 -6.35881,0.466467 -12.10133,3.954521 -17.07616,7.942398 -9.763151,7.826245 -17.606536,17.91475 -23.430069,28.98975 -8.494743,16.15502 -12.709604,34.21085 -20.253111,50.83134 -3.623631,7.98389 -8.012018,15.62855 -11.119356,23.82719 -2.118566,5.58979 -3.6408,11.55698 -3.067816,17.50725 0.116063,1.20528 0.317444,2.40181 0.407069,3.60935 0.08963,1.20754 0.06473,2.43887 -0.264071,3.60423 -0.328802,1.16536 -0.983877,2.26654 -1.969689,2.96964 -0.492907,0.35155 -1.063131,0.59868 -1.660949,0.69437 -0.597818,0.0957 -1.222696,0.0374 -1.784061,-0.18933 -0.65977,-0.26649 -1.21686,-0.75971 -1.608142,-1.35403 -0.391281,-0.59432 -0.621786,-1.28614 -0.72093,-1.99075 -0.198286,-1.40924 0.116683,-2.83681 0.480373,-4.21267 1.973782,-7.46694 5.460784,-14.53049 10.188216,-20.63806 v 0 c 3.436491,-10.59155 6.878197,-21.18142 10.325116,-31.76958 3.703364,-11.37591 7.442216,-22.81959 13.104955,-33.35807 6.500925,-12.09836 15.408853,-22.751281 25.018552,-32.563831 1.069199,-1.091769 2.177749,-2.195813 3.559389,-2.848665 0.69082,-0.326425 1.445044,-0.533045 2.209054,-0.541735 0.76401,-0.0087 1.53789,0.187225 2.17395,0.610561 0.53094,0.353372 0.95312,0.854345 1.27157,1.40694 0.31844,0.552595 0.53745,1.157168 0.71403,1.770019 1.03528,3.593015 0.635,7.434472 0,11.119351 -0.72065,4.18187 -1.73474,8.3198 -3.17696,12.31072 -1.591628,4.40436 -3.695624,8.60677 -5.956793,12.70784 -3.246928,5.88893 -6.828695,11.59323 -10.722237,17.07615"
         id="path867"
         inkscape:path-effect="#path-effect869"
         inkscape:original-d="m 56.391021,169.9673 c -7.016049,19.32623 17.208791,-16.41403 25.812789,-24.62143 8.603999,-8.20741 8.207409,-10.06011 12.310716,-15.09056 4.103306,-5.03045 5.824684,-6.35365 8.736634,-9.53087 2.91195,-3.17723 9.00165,-14.29605 13.50208,-21.444477 4.50042,-7.14842 3.70671,-11.119091 5.55968,-16.679032 1.85296,-5.559943 2.6e-4,-4.235683 0,-6.353918 -2.7e-4,-2.118238 -2.91195,-0.793975 -4.36832,-1.191361 -1.45637,-0.397383 -11.38384,5.295196 -17.07616,7.942398 -5.692313,2.647201 -15.619778,19.32676 -23.430069,28.98975 -7.810289,9.66298 -13.501809,33.88782 -20.253111,50.83134 -6.751304,16.94352 -8.206879,15.88506 -11.119356,23.82719 -1.456239,3.97106 -1.813623,11.3074 -3.067816,17.50725 -1.254192,6.19984 -0.228233,11.26318 -5.271701,10.68826 -2.464932,-0.28099 -2.464932,-3.95434 -1.848699,-7.55745 0.616233,-3.60312 10.188216,-20.63806 10.188216,-20.63806 v 0 c 0,0 7.677915,-22.37082 10.325116,-31.76958 2.647201,-9.39877 9.001648,-19.32624 13.104955,-33.35807 3.742242,-12.79712 18.797272,-25.018287 25.018552,-32.563831 6.221283,-7.545542 2.515357,1.323997 7.942393,-2.779839 5.42704,-4.103837 1.324,2.118237 1.9856,3.176959 0.66161,1.058721 2.7e-4,7.413168 0,11.119351 -2.6e-4,3.70619 -2.1177,8.20741 -3.17696,12.31072 -1.05925,4.10331 -3.970929,8.47216 -5.956793,12.70784 -1.985864,4.23568 -7.147893,11.38436 -10.722237,17.07615"
         sodipodi:nodetypes="cssssssssssssssccssssssssc" />
      <path
         style="fill:none;stroke:#f4f4ed;stroke-width:5;stroke-linecap:butt;stroke-linejoin:miter;stroke-miterlimit:4;stroke-dasharray:none;stroke-opacity:1"
         d="m 56.391021,169.9673 c 8.023196,-8.17545 16.659633,-15.74894 25.812789,-22.63583 6.764176,-5.08941 13.866459,-9.83477 21.67294,-13.10815 7.80648,-3.27338 16.39176,-5.02837 24.79008,-3.96801 2.69752,0.34058 5.47068,1.02239 7.54528,2.77984 2.17866,1.8456 3.32561,4.7008 3.57408,7.54528 0.22066,2.5261 -0.20662,5.08211 -1.02178,7.48324 -0.81515,2.40112 -2.01105,4.65753 -3.34654,6.81307 -2.29029,3.69661 -5.00088,7.12233 -7.9424,10.32512 -5.32891,5.80223 -11.40072,10.86609 -17.47327,15.88479 -7.9044,6.53264 -15.844878,13.02168 -23.827192,19.45888 -8.618542,6.95028 -17.30377,13.85307 -26.607031,19.85599 -4.685902,3.02357 -9.522574,5.81446 -14.494873,8.33952 -2.582262,1.31134 -5.207836,2.55484 -7.644558,4.12011 -0.442123,0.284 -0.887521,0.58292 -1.394735,0.72027 -0.253608,0.0687 -0.520914,0.095 -0.780553,0.0548 -0.259639,-0.0403 -0.511355,-0.14945 -0.70383,-0.3283 -0.153059,-0.14222 -0.265965,-0.32593 -0.330639,-0.5246 -0.06467,-0.19868 -0.08166,-0.41188 -0.05649,-0.61929 0.05034,-0.41483 0.267698,-0.79808 0.5604,-1.09631 0.292703,-0.29824 0.657574,-0.5172 1.037915,-0.69028 0.380342,-0.17308 0.778555,-0.30294 1.171528,-0.44503 3.10699,-1.1234 5.876537,-3.00655 8.538076,-4.964 3.71554,-2.73262 7.295663,-5.6494 10.722237,-8.73664 4.433356,-3.99432 8.618706,-8.2812 13.353156,-11.91359 4.651018,-3.56838 9.776413,-6.46235 14.643794,-9.72944 11.14917,-7.48356 20.911221,-16.90162 32.166711,-24.22431 17.58311,-11.43937 38.18594,-17.37727 56.39102,-27.79839 9.14038,-5.23222 17.6288,-11.57329 25.41567,-18.66464 7.79224,-7.09624 14.91791,-14.98321 20.65023,-23.82719 2.90427,-4.480785 5.49978,-9.373342 5.9568,-14.693432 0.0568,-0.660629 0.0799,-1.32736 0,-1.985597 -0.0489,-0.402753 -0.13815,-0.806277 -0.32725,-1.16522 -0.18909,-0.358944 -0.48654,-0.671937 -0.86411,-0.82038 -0.23239,-0.09136 -0.48747,-0.11787 -0.73621,-0.096 -0.24875,0.02187 -0.4917,0.09098 -0.7231,0.184817 -0.4628,0.18768 -0.87898,0.472088 -1.32053,0.705419 -1.59539,0.843062 -3.45926,0.992849 -5.16256,1.588479 -1.70742,0.597069 -3.23189,1.637155 -4.58441,2.838189 -1.35251,1.201034 -2.54747,2.566231 -3.75511,3.912848 -8.32667,9.284887 -17.45093,17.885074 -25.01854,27.798394 -6.17355,8.08714 -11.24945,16.97004 -17.47328,25.01855 -3.79498,4.90758 -7.99988,9.48288 -11.9136,14.29631 -3.97882,4.89349 -7.65994,10.03687 -11.91359,14.69344 -4.54608,4.9767 -9.70964,9.357 -14.29632,14.29631 -1.86679,2.01031 -3.63787,4.11304 -5.61304,6.01696 -1.97517,1.90393 -4.17826,3.61955 -6.69767,4.70528 -0.5141,0.22155 -1.04879,0.41824 -1.60711,0.4591 -0.27916,0.0204 -0.56247,0.001 -0.83255,-0.0725 -0.27007,-0.0735 -0.52674,-0.20222 -0.7373,-0.38664 -0.21249,-0.18611 -0.37488,-0.42624 -0.48322,-0.6871 -0.10833,-0.26087 -0.1636,-0.54215 -0.178,-0.82425 -0.0288,-0.5642 0.10336,-1.12403 0.2641,-1.66561 0.59216,-1.9951 1.58256,-3.85745 2.77984,-5.55968 1.8391,-2.61475 4.16885,-4.8665 6.75104,-6.75104 5.0924,-3.71655 11.08486,-5.98029 17.07615,-7.94239 10.07519,-3.29954 20.37182,-5.86862 30.57823,-8.73664 19.50084,-5.47978 38.90449,-12.15808 55.9939,-23.03295 16.11221,-10.25303 29.69722,-23.92751 43.68319,-36.93215 0.47041,-0.43741 0.9448,-0.87796 1.3201,-1.39926 0.3753,-0.52131 0.64931,-1.13555 0.6655,-1.7777 0.0103,-0.40955 -0.0869,-0.8235 -0.29289,-1.1776 -0.20604,-0.3541 -0.52223,-0.6459 -0.89848,-0.808 -0.30378,-0.130875 -0.64104,-0.176229 -0.97095,-0.152447 -0.32991,0.02378 -0.65285,0.115187 -0.95606,0.247367 -0.60643,0.26434 -1.12869,0.68543 -1.64706,1.09644 -9.15545,7.25922 -19.54047,12.86551 -28.59264,20.25312 -6.24131,5.09363 -11.78092,10.97848 -17.47327,16.67903 -7.28746,7.29796 -14.89042,14.36181 -21.04735,22.63583 -4.37266,5.87622 -8.00482,12.39124 -9.928,19.45888 -0.84471,3.10428 -1.35659,6.32381 -1.19103,9.5367 0.16555,3.2129 1.03237,6.42652 2.77951,9.12793 2.24251,3.46735 5.82779,5.92122 9.69476,7.36961 3.86698,1.4484 8.02239,1.96048 12.14683,2.16127 10.50895,0.5116 21.01559,-0.92655 31.37247,-2.77984 2.12121,-0.37958 4.23928,-0.77671 6.35392,-1.19136"
         id="path871"
         inkscape:path-effect="#path-effect873"
         inkscape:original-d="m 56.391021,169.9673 c 9.795888,-7.28026 18.267777,-16.14927 25.812789,-22.63583 7.545011,-6.48656 31.76985,-12.97232 46.46302,-17.07616 14.69317,-4.10383 5.03045,1.85349 7.54528,2.77984 2.51483,0.92635 2.38299,5.03045 3.57408,7.54528 1.19109,2.51483 -2.91195,9.53114 -4.36832,14.29631 -1.45637,4.76518 -5.29467,6.88368 -7.9424,10.32512 -2.64773,3.44144 -11.64858,10.59013 -17.47327,15.88479 -5.82469,5.29467 -15.884531,12.97285 -23.827192,19.45888 -7.94266,6.48602 -17.870129,12.7081 -26.607031,19.85599 -8.736901,7.14789 -10.258659,5.03046 -14.494873,8.33952 -2.118105,1.65453 -5.940318,3.52437 -7.644558,4.12011 -1.70424,0.59575 -1.290507,-0.0826 -2.879118,0.44676 -3.177225,1.05873 2.515356,-1.78677 2.382718,-3.37551 -0.06632,-0.79438 5.526518,-3.37559 8.538076,-4.964 3.011558,-1.58842 9.994316,-7.14803 10.722237,-8.73664 0.727922,-1.58861 6.420039,-6.68492 13.353156,-11.91359 6.933117,-5.22868 -6.473356,2.484 14.643794,-9.72944 12.562928,-7.26597 18.664901,-16.41402 32.166711,-24.22431 13.50181,-7.81029 37.59428,-18.532 56.39102,-27.79839 18.79674,-9.2664 16.94404,-12.44283 25.41567,-18.66464 8.47162,-6.22181 13.76709,-15.88453 20.65023,-23.82719 6.88315,-7.942657 3.97146,-9.795354 5.9568,-14.693432 1.98533,-4.898075 2.6e-4,-1.323467 0,-1.985597 -2.7e-4,-0.662133 -0.79398,-1.32347 -1.19136,-1.9856 -0.39738,-0.662131 -1.85296,0.529756 -2.77984,0.794239 -0.92688,0.264483 -3.44144,1.059252 -5.16256,1.588479 -1.72112,0.52923 -5.55941,4.500957 -8.33952,6.751037 -2.7801,2.250083 -16.67876,18.532524 -25.01854,27.798394 -8.33979,9.26586 -11.64859,16.6793 -17.47328,25.01855 -5.82469,8.33925 -7.94213,9.53114 -11.9136,14.29631 -3.97146,4.76518 -7.94213,9.79589 -11.91359,14.69344 -3.97147,4.89754 -9.53061,9.53114 -14.29632,14.29631 -4.7657,4.76518 -8.20687,7.14842 -12.31071,10.72224 -4.10384,3.57381 -2.11771,2.6e-4 -3.17696,0 -1.05925,-2.7e-4 -0.26448,-2.11771 -0.39712,-3.17696 -0.13264,-1.05925 1.85349,-3.70619 2.77984,-5.55968 0.92635,-1.85349 4.50096,-4.50043 6.75104,-6.75104 2.25008,-2.25061 11.38436,-5.29466 17.07615,-7.94239 5.69179,-2.64773 20.38575,-5.82416 30.57823,-8.73664 10.19248,-2.91248 37.32953,-15.35504 55.9939,-23.03295 18.66437,-7.67792 29.12239,-24.62117 43.68319,-36.93215 14.56079,-12.310978 1.32398,-2.11771 1.9856,-3.17696 0.66159,-1.05925 -0.79399,-1.32346 -1.19137,-1.9856 -0.39738,-0.662128 -2.38244,0.79451 -3.57407,1.19136 -1.19163,0.39686 -19.06149,13.50234 -28.59264,20.25312 -9.53114,6.75077 -11.64858,11.11962 -17.47327,16.67903 -5.82469,5.55941 -14.0313,15.09082 -21.04735,22.63583 -7.01605,7.54501 -6.6184,12.97285 -9.928,19.45888 -3.30959,6.48602 1.05925,12.44335 1.58848,18.66463 0.52923,6.22128 14.56133,6.35418 21.84159,9.53088 7.28027,3.17669 20.91525,-1.85297 31.37247,-2.77984 10.45723,-0.92688 4.23621,-0.79398 6.35392,-1.19136"
         sodipodi:nodetypes="cssssssssssscsssssssssssssssssssssssssssssssssssssssc" />
    </g>
  </g>
</svg>
